<?xml version="1.0" encoding="utf-8"?>
<!-- Generator: Adobe Illustrator 18.1.1, SVG Export Plug-In . SVG Version: 6.00 Build 0)  -->
<!DOCTYPE svg PUBLIC "-//W3C//DTD SVG 1.1//EN" "http://www.w3.org/Graphics/SVG/1.1/DTD/svg11.dtd">
<svg version="1.1" id="Layer_1" xmlns="http://www.w3.org/2000/svg" xmlns:xlink="http://www.w3.org/1999/xlink" x="0px" y="0px"
	 viewBox="0 0 523 83" style="enable-background:new 0 0 523 83;" xml:space="preserve">
<g>
	<path style="fill:#0B95D3;" d="M60.7,42.5c1.5,1.5,2.7,3.3,3.6,5.3c0.9,2,1.3,4.2,1.3,6.5s-0.4,4.5-1.3,6.5c-0.9,2-2.1,3.8-3.6,5.3
		c-1.5,1.5-3.3,2.7-5.3,3.6c-2,0.9-4.2,1.3-6.5,1.3h-27c-1.7,0-3.4-0.3-4.9-1c-1.5-0.6-2.9-1.5-4-2.7c-1.2-1.2-2.1-2.5-2.7-4
		c-0.6-1.5-1-3.2-1-4.9V30.3c0-1.7,0.3-3.4,1-4.9c0.6-1.5,1.5-2.9,2.7-4c1.2-1.2,2.5-2.1,4-2.7c1.5-0.6,3.2-1,4.9-1h27
		c2.1,0,4.1,0.4,5.9,1.2c1.8,0.8,3.4,1.9,4.8,3.3c1.4,1.4,2.5,3,3.3,4.8c0.8,1.8,1.2,3.8,1.2,5.9c0,1.8-0.3,3.6-0.9,5.2
		C62.6,39.7,61.8,41.2,60.7,42.5z M21.9,28.2c-0.6,0-1.1,0.2-1.5,0.6c-0.4,0.4-0.6,0.9-0.6,1.5v7.3h29.1c1.3,0,2.4-0.5,3.3-1.4
		c0.9-0.9,1.4-2,1.4-3.3s-0.5-2.4-1.4-3.3c-0.9-0.9-2-1.4-3.3-1.4H21.9z M48.9,60.5c1.7,0,3.2-0.6,4.4-1.8c1.2-1.2,1.8-2.7,1.8-4.4
		c0-0.9-0.2-1.7-0.5-2.4c-0.3-0.7-0.8-1.4-1.3-1.9c-0.6-0.6-1.2-1-2-1.3c-0.7-0.3-1.5-0.5-2.4-0.5H19.8v10.3c0,0.6,0.2,1.1,0.6,1.5
		c0.4,0.4,0.9,0.6,1.5,0.6H48.9z"/>
	<path style="fill:#0B95D3;" d="M80.3,54.3c0,1.7,0.6,3.2,1.8,4.4c1.2,1.2,2.7,1.8,4.4,1.8h27c0.6,0,1.1-0.2,1.5-0.6
		c0.4-0.4,0.6-0.9,0.6-1.5v-3H126v3c0,1.7-0.3,3.3-1,4.9c-0.6,1.5-1.5,2.8-2.7,4s-2.5,2.1-4,2.7c-1.5,0.6-3.1,1-4.9,1l-27,0.1
		c-2.3,0-4.5-0.4-6.5-1.3c-2-0.9-3.8-2.1-5.3-3.6c-1.5-1.5-2.7-3.3-3.6-5.3c-0.9-2-1.3-4.2-1.3-6.5V17.7h10.5V54.3z"/>
	<path style="fill:#0B95D3;" d="M176.8,17.7h10.4v36.6c0,2.3-0.4,4.5-1.3,6.5c-0.9,2-2.1,3.8-3.6,5.3c-1.5,1.5-3.3,2.7-5.3,3.6
		c-2,0.9-4.2,1.3-6.5,1.3h-22.9c-2.3,0-4.5-0.4-6.5-1.3c-2-0.9-3.8-2.1-5.3-3.6c-1.5-1.5-2.7-3.3-3.6-5.3c-0.9-2-1.3-4.2-1.3-6.5
		V17.7h10.5v36.6c0,1.7,0.6,3.2,1.8,4.4c1.2,1.2,2.7,1.8,4.4,1.8h22.9c0.9,0,1.7-0.2,2.4-0.5c0.7-0.3,1.4-0.8,1.9-1.3
		c0.6-0.6,1-1.2,1.3-2c0.3-0.7,0.5-1.5,0.5-2.4V17.7z"/>
	<path style="fill:#0B95D3;" d="M215.7,43v8.1h-23.6V43H215.7z"/>
	<path style="fill:#0B95D3;" d="M233.2,17.8c3.4,0,6.4,0,9,0c2.6,0,4.8,0,6.7,0c1.9,0,3.5,0,4.8,0s2.4,0,3.2,0h3.4
		c2.3,0,4.5,0.4,6.5,1.3c2,0.9,3.8,2.1,5.3,3.6c1.5,1.5,2.7,3.3,3.6,5.3c0.9,2,1.3,4.2,1.3,6.5c0,1.9-0.3,3.8-1,5.6
		s-1.5,3.4-2.7,4.9c-1.2,1.4-2.5,2.7-4.1,3.7c-1.6,1-3.3,1.7-5.2,2.2c-3.9,0.9-7,1.5-9.1,2c-2.1,0.5-3.7,0.8-4.7,1.1l-2,0.4
		c-0.7,0.1-1.3,0.5-1.8,1.1c-0.5,0.6-0.7,1.2-0.7,2c0,0.9,0.3,1.6,0.9,2.2c0.6,0.6,1.4,0.9,2.3,0.9H275V71h-26.2
		c-1.9,0-3.6-0.4-5.3-1.1c-1.7-0.7-3.1-1.7-4.4-2.9c-1.2-1.2-2.2-2.7-2.9-4.4c-0.7-1.7-1.1-3.5-1.1-5.3c0-1.6,0.3-3.1,0.8-4.6
		c0.5-1.5,1.3-2.8,2.2-4c1-1.2,2.1-2.2,3.4-3c1.3-0.8,2.7-1.4,4.3-1.8l15.7-3.5c1.4-0.3,2.6-1.1,3.5-2.2c0.9-1.1,1.4-2.4,1.4-3.9
		c0-0.9-0.2-1.7-0.5-2.4c-0.3-0.7-0.8-1.4-1.3-2s-1.2-1-1.9-1.3c-0.7-0.3-1.5-0.5-2.4-0.5h-27c-0.6,0-1.1,0.2-1.5,0.6
		c-0.4,0.4-0.6,0.9-0.6,1.5V71h-10.5V30.3c0-1.7,0.3-3.3,1-4.9s1.5-2.8,2.7-4c1.2-1.2,2.5-2.1,4-2.7
		C229.8,18.1,231.4,17.8,233.2,17.8z"/>
	<path style="fill:#0B95D3;" d="M337.4,33.3h-10.4v-3c0-0.6-0.2-1.1-0.6-1.5c-0.4-0.4-0.9-0.6-1.5-0.6h-27c-1.7,0-3.2,0.6-4.4,1.8
		c-1.2,1.2-1.8,2.7-1.8,4.4v3.2H310v10.5h-18.4v6.2c0,1.7,0.6,3.2,1.8,4.4s2.7,1.8,4.4,1.8h27c0.6,0,1.1-0.2,1.5-0.6
		c0.4-0.4,0.6-0.9,0.6-1.5v-3h10.4v3c0,1.7-0.3,3.3-1,4.9c-0.6,1.5-1.5,2.8-2.7,4c-1.2,1.2-2.5,2.1-4,2.7c-1.5,0.6-3.1,1-4.9,1
		l-27,0.1c-2.3,0-4.5-0.4-6.5-1.3c-2-0.9-3.8-2.1-5.3-3.6c-1.5-1.5-2.7-3.3-3.6-5.3c-0.9-2-1.3-4.2-1.3-6.5V34.4
		c0-2.3,0.4-4.5,1.3-6.5c0.9-2,2.1-3.8,3.6-5.3c1.5-1.5,3.3-2.7,5.3-3.6c2-0.9,4.2-1.3,6.5-1.3l27,0.1c1.7,0,3.3,0.3,4.9,1
		c1.5,0.6,2.8,1.5,4,2.7c1.2,1.2,2.1,2.5,2.7,4c0.6,1.5,1,3.1,1,4.9V33.3z"/>
	<path style="fill:#0B95D3;" d="M385.2,53.8h-31.8c-0.7,2.9-1.3,5.8-2,8.8c-0.6,3-1.3,5.8-1.9,8.4h-10.7l9.1-40.2
		c0.4-1.9,1.2-3.6,2.2-5.2c1-1.6,2.2-3,3.7-4.1c1.4-1.2,3.1-2.1,4.9-2.7c1.8-0.6,3.7-1,5.6-1h10.4c2,0,3.8,0.3,5.6,1
		c1.8,0.6,3.4,1.5,4.8,2.7c1.4,1.2,2.7,2.5,3.7,4.1c1,1.6,1.7,3.3,2.2,5.2l9.1,40.2H389c-0.6-2.6-1.3-5.4-1.9-8.4
		C386.5,59.6,385.8,56.7,385.2,53.8z M355.7,43.3h27.1c-0.3-1.5-0.6-2.9-0.9-4.1c-0.3-1.2-0.5-2.3-0.8-3.2c-0.2-1.1-0.5-2-0.6-2.9
		c-0.3-1.4-1.1-2.5-2.2-3.5c-1.1-0.9-2.4-1.4-3.9-1.4h-10.4c-1.4,0-2.7,0.5-3.9,1.4c-1.2,0.9-1.9,2.1-2.2,3.5
		c-0.2,0.9-0.4,1.8-0.6,2.9c-0.2,0.9-0.5,2-0.7,3.2C356.4,40.4,356.1,41.7,355.7,43.3z"/>
	<path style="fill:#0B95D3;" d="M414.2,17.8l22.6-0.1c2,0,3.8,0.3,5.6,1c1.8,0.6,3.4,1.5,4.8,2.7c1.4,1.2,2.7,2.5,3.7,4.1
		c1,1.6,1.7,3.4,2.2,5.3c0.5,2,0.9,3.8,1.2,5.2c0.3,1.5,0.7,3.1,1,4.8c0.4,1.7,0.7,3.3,1.1,4.8c0.3,1.5,0.7,3.2,1.2,5.1
		c0.1,0.6,0.2,1.2,0.3,1.8c0,0.6,0.1,1.2,0.1,1.8c0,2.3-0.4,4.5-1.3,6.5c-0.9,2-2.1,3.8-3.6,5.3c-1.5,1.5-3.3,2.7-5.3,3.6
		c-2,0.9-4.2,1.3-6.5,1.3l-26.9-0.1c-1.7,0-3.4-0.3-4.9-1c-1.5-0.6-2.9-1.5-4-2.7c-1.2-1.2-2.1-2.5-2.7-4c-0.6-1.5-1-3.1-1-4.9V30.3
		c0-1.7,0.3-3.3,1-4.9s1.5-2.8,2.7-4c1.2-1.2,2.5-2.1,4-2.7C410.9,18.1,412.5,17.8,414.2,17.8z M414.3,60.5h27
		c0.9,0,1.7-0.2,2.4-0.5c0.7-0.3,1.4-0.8,1.9-1.3c0.6-0.6,1-1.2,1.3-2c0.3-0.7,0.5-1.5,0.5-2.4c0-0.2,0-0.5,0-0.6
		c0-0.2-0.1-0.4-0.1-0.6l-4.5-19.9c-0.3-1.4-1.1-2.5-2.2-3.5c-1.1-0.9-2.4-1.4-3.9-1.4h-22.5c-0.6,0-1.1,0.2-1.5,0.6
		c-0.4,0.4-0.6,0.9-0.6,1.5v28.1c0,0.6,0.2,1.1,0.6,1.5C413.3,60.3,413.7,60.5,414.3,60.5z"/>
	<path style="fill:#0B95D3;" d="M507.3,17.7h10.4v25.1c0,2.3-0.4,4.5-1.3,6.5c-0.9,2-2.1,3.8-3.6,5.3s-3.3,2.7-5.3,3.6
		c-2,0.9-4.2,1.3-6.5,1.3h-5.5V71h-10.5V59.6h-6.9c-2.3,0-4.5-0.4-6.5-1.3c-2-0.9-3.8-2.1-5.3-3.6s-2.7-3.3-3.6-5.3
		c-0.9-2-1.3-4.2-1.3-6.5V17.7H472v25.1c0,1.7,0.6,3.2,1.8,4.4c1.2,1.2,2.7,1.8,4.4,1.8h22.9c0.9,0,1.7-0.2,2.4-0.5
		c0.7-0.3,1.4-0.8,1.9-1.3c0.6-0.6,1-1.2,1.3-2c0.3-0.7,0.5-1.5,0.5-2.4V17.7z"/>
</g>
</svg>
